<svg id="KNOBS" xmlns="http://www.w3.org/2000/svg" xmlns:xlink="http://www.w3.org/1999/xlink" viewBox="0 0 627.58 141.22"><defs><style>.cls-1{fill:url(#linear-gradient);}.cls-2{fill:url(#radial-gradient);}.cls-3{fill:none;stroke-miterlimit:10;stroke-width:0.25px;stroke:url(#New_Gradient_Swatch_1);}.cls-4{fill:url(#linear-gradient-2);}</style><linearGradient id="linear-gradient" x1="3.44" y1="3.01" x2="16.13" y2="15.69" gradientUnits="userSpaceOnUse"><stop offset="0" stop-color="#a6a8ac"/><stop offset="0.03" stop-color="#8d8f92"/><stop offset="0.08" stop-color="#747577"/><stop offset="0.13" stop-color="#5f5f61"/><stop offset="0.18" stop-color="#4f4f50"/><stop offset="0.26" stop-color="#434345"/><stop offset="0.36" stop-color="#3d3d3e"/><stop offset="0.64" stop-color="#3b3b3c"/><stop offset="0.84" stop-color="#231f20"/></linearGradient><radialGradient id="radial-gradient" cx="9.38" cy="9.38" r="9.26" gradientUnits="userSpaceOnUse"><stop offset="0.2" stop-color="#434446"/><stop offset="0.26" stop-color="#3e3e3f"/><stop offset="0.49" stop-color="#2f2d2e"/><stop offset="0.72" stop-color="#262223"/><stop offset="1" stop-color="#231f20"/></radialGradient><linearGradient id="New_Gradient_Swatch_1" y1="9.38" x2="18.76" y2="9.38" gradientUnits="userSpaceOnUse"><stop offset="0" stop-color="#595a5c"/><stop offset="1" stop-color="#231f20"/></linearGradient><linearGradient id="linear-gradient-2" x1="422.1" y1="-456.07" x2="429.35" y2="-456.07" gradientTransform="matrix(0.83, 0.2, 0.2, 0.78, -256.03, 286.26)" gradientUnits="userSpaceOnUse"><stop offset="0" stop-color="#fff"/><stop offset="1" stop-color="#fff"/></linearGradient><symbol id="Davies_Knob_2" data-name="Davies Knob 2" viewBox="0 0 18.76 18.76"><path class="cls-1" d="M18.64,9.35a9,9,0,0,1-8.86,9.09A9,9,0,0,1,.93,9.35,9,9,0,0,1,9.78.27,9,9,0,0,1,18.64,9.35Z"/><path class="cls-2" d="M18.61,9.89c0-.17,0-.34,0-.51a9.74,9.74,0,0,0-.18-1.81l-.61-.17A2.65,2.65,0,0,1,16.19,6l0,0A2.71,2.71,0,0,1,16,3.77l.22-.57a9.58,9.58,0,0,0-1.76-1.54L14,2a2.67,2.67,0,0,1-2.18.17h0A2.68,2.68,0,0,1,10.1.69L9.87.15h0A9.45,9.45,0,0,0,7.52.31L7.36.88A2.67,2.67,0,0,1,6,2.54h0a2.63,2.63,0,0,1-2.19.14l-.51-.2a8.94,8.94,0,0,0-1.56,1.8l.27.48A2.67,2.67,0,0,1,2.1,7V7A2.68,2.68,0,0,1,.65,8.62l-.5.21c0,.19,0,.37,0,.55a9.34,9.34,0,0,0,.19,1.84l.53.14A2.67,2.67,0,0,1,2.5,12.77v0A2.65,2.65,0,0,1,2.65,15l-.2.5a9.21,9.21,0,0,0,1.79,1.57l.49-.28a2.68,2.68,0,0,1,2.18-.17h0a2.65,2.65,0,0,1,1.64,1.45l.23.53c.19,0,.38,0,.57,0a9.42,9.42,0,0,0,1.78-.18l.16-.57a2.68,2.68,0,0,1,1.42-1.67h0a2.69,2.69,0,0,1,2.2-.14l.56.22a9.22,9.22,0,0,0,1.55-1.75L16.75,14a2.71,2.71,0,0,1-.17-2.18v0A2.67,2.67,0,0,1,18,10.14Z"/><path class="cls-3" d="M18.61,9.89c0-.17,0-.34,0-.51a9.74,9.74,0,0,0-.18-1.81l-.61-.17A2.65,2.65,0,0,1,16.19,6l0,0A2.71,2.71,0,0,1,16,3.77l.22-.57a9.58,9.58,0,0,0-1.76-1.54L14,2a2.67,2.67,0,0,1-2.18.17h0A2.68,2.68,0,0,1,10.1.69L9.87.15h0A9.45,9.45,0,0,0,7.52.31L7.36.88A2.67,2.67,0,0,1,6,2.54h0a2.63,2.63,0,0,1-2.19.14l-.51-.2a8.94,8.94,0,0,0-1.56,1.8l.27.48A2.67,2.67,0,0,1,2.1,7V7A2.68,2.68,0,0,1,.65,8.62l-.5.21c0,.19,0,.37,0,.55a9.34,9.34,0,0,0,.19,1.84l.53.14A2.67,2.67,0,0,1,2.5,12.77v0A2.65,2.65,0,0,1,2.65,15l-.2.5a9.21,9.21,0,0,0,1.79,1.57l.49-.28a2.68,2.68,0,0,1,2.18-.17h0a2.65,2.65,0,0,1,1.64,1.45l.23.53c.19,0,.38,0,.57,0a9.42,9.42,0,0,0,1.78-.18l.16-.57a2.68,2.68,0,0,1,1.42-1.67h0a2.69,2.69,0,0,1,2.2-.14l.56.22a9.22,9.22,0,0,0,1.55-1.75L16.75,14a2.71,2.71,0,0,1-.17-2.18v0A2.67,2.67,0,0,1,18,10.14Z"/></symbol><symbol id="Davies_Knob" data-name="Davies Knob" viewBox="0 0 18.76 18.76"><path class="cls-1" d="M18.64,9.35a9,9,0,0,1-8.86,9.09A9,9,0,0,1,.93,9.35,9,9,0,0,1,9.78.27,9,9,0,0,1,18.64,9.35Z"/><path class="cls-2" d="M18.61,9.89c0-.17,0-.34,0-.51a9.74,9.74,0,0,0-.18-1.81l-.61-.17A2.65,2.65,0,0,1,16.19,6l0,0A2.71,2.71,0,0,1,16,3.77l.22-.57a9.58,9.58,0,0,0-1.76-1.54L14,2a2.67,2.67,0,0,1-2.18.17h0A2.68,2.68,0,0,1,10.1.69L9.87.15h0A9.45,9.45,0,0,0,7.52.31L7.36.88A2.67,2.67,0,0,1,6,2.54h0a2.63,2.63,0,0,1-2.19.14l-.51-.2a8.94,8.94,0,0,0-1.56,1.8l.27.48A2.67,2.67,0,0,1,2.1,7V7A2.68,2.68,0,0,1,.65,8.62l-.5.21c0,.19,0,.37,0,.55a9.34,9.34,0,0,0,.19,1.84l.53.14A2.67,2.67,0,0,1,2.5,12.77v0A2.65,2.65,0,0,1,2.65,15l-.2.5a9.21,9.21,0,0,0,1.79,1.57l.49-.28a2.68,2.68,0,0,1,2.18-.17h0a2.65,2.65,0,0,1,1.64,1.45l.23.53c.19,0,.38,0,.57,0a9.42,9.42,0,0,0,1.78-.18l.16-.57a2.68,2.68,0,0,1,1.42-1.67h0a2.69,2.69,0,0,1,2.2-.14l.56.22a9.22,9.22,0,0,0,1.55-1.75L16.75,14a2.71,2.71,0,0,1-.17-2.18v0A2.67,2.67,0,0,1,18,10.14Z"/><path class="cls-3" d="M18.61,9.89c0-.17,0-.34,0-.51a9.74,9.74,0,0,0-.18-1.81l-.61-.17A2.65,2.65,0,0,1,16.19,6l0,0A2.71,2.71,0,0,1,16,3.77l.22-.57a9.58,9.58,0,0,0-1.76-1.54L14,2a2.67,2.67,0,0,1-2.18.17h0A2.68,2.68,0,0,1,10.1.69L9.87.15h0A9.45,9.45,0,0,0,7.52.31L7.36.88A2.67,2.67,0,0,1,6,2.54h0a2.63,2.63,0,0,1-2.19.14l-.51-.2a8.94,8.94,0,0,0-1.56,1.8l.27.48A2.67,2.67,0,0,1,2.1,7V7A2.68,2.68,0,0,1,.65,8.62l-.5.21c0,.19,0,.37,0,.55a9.34,9.34,0,0,0,.19,1.84l.53.14A2.67,2.67,0,0,1,2.5,12.77v0A2.65,2.65,0,0,1,2.65,15l-.2.5a9.21,9.21,0,0,0,1.79,1.57l.49-.28a2.68,2.68,0,0,1,2.18-.17h0a2.65,2.65,0,0,1,1.64,1.45l.23.53c.19,0,.38,0,.57,0a9.42,9.42,0,0,0,1.78-.18l.16-.57a2.68,2.68,0,0,1,1.42-1.67h0a2.69,2.69,0,0,1,2.2-.14l.56.22a9.22,9.22,0,0,0,1.55-1.75L16.75,14a2.71,2.71,0,0,1-.17-2.18v0A2.67,2.67,0,0,1,18,10.14Z"/><path class="cls-4" d="M8.39,11.65a.93.93,0,0,0,0-.13.8.8,0,0,0-.3-.66.83.83,0,0,0-.71-.25l-.12.06L3.65,14.75c.18.17.29.34.48.5s.43.32.61.47"/></symbol></defs><use width="18.76" height="18.76" transform="translate(62.31 19.16)" xlink:href="#Davies_Knob_2"/><use width="18.76" height="18.76" transform="translate(242.84 19.16)" xlink:href="#Davies_Knob_2"/><use width="18.76" height="18.76" transform="translate(452.71 19.56)" xlink:href="#Davies_Knob"/><use width="18.76" height="18.76" transform="translate(500.31 19.56)" xlink:href="#Davies_Knob"/></svg>