<svg id="Layer_14" data-name="Layer 14" xmlns="http://www.w3.org/2000/svg" viewBox="0 0 632.88 782.34"><defs><style>.cls-1,.cls-3,.cls-5,.cls-7,.cls-9{fill:none;stroke-linecap:round;stroke-miterlimit:10;stroke-width:2px;}.cls-1{stroke:#ee1e50;}.cls-2{fill:#ee1e50;}.cls-3{stroke:#f57f20;}.cls-4{fill:#f57f20;}.cls-5{stroke:#0f7d3f;}.cls-6{fill:#0f7d3f;}.cls-7{stroke:#f7d823;}.cls-8{fill:#f7d823;}.cls-9{stroke:#4364ae;}.cls-10{fill:#4364ae;}</style></defs><path class="cls-1" d="M112.38,108.62c22.54,36.85,38.68-2.57,39.29-1.19"/><path class="cls-2" d="M110.46,109.8a2.26,2.26,0,1,1,3.1.75A2.25,2.25,0,0,1,110.46,109.8Z"/><circle class="cls-2" cx="151.67" cy="107.43" r="2.26"/><path class="cls-1" d="M262.91,66.51c-.61-1.38-16.75,38.05-39.29,1.2"/><path class="cls-2" d="M265,65.6a2.26,2.26,0,1,1-3-1.15A2.26,2.26,0,0,1,265,65.6Z"/><path class="cls-2" d="M225.54,66.53a2.26,2.26,0,1,0-.74,3.1A2.26,2.26,0,0,0,225.54,66.53Z"/><path class="cls-1" d="M151.67,217.08c-1.8-2.79-49.3,76.7-115.64,2.41"/><path class="cls-2" d="M153.57,215.86a2.26,2.26,0,1,1-3.12-.68A2.26,2.26,0,0,1,153.57,215.86Z"/><path class="cls-2" d="M37.72,218a2.26,2.26,0,1,0-.18,3.19A2.27,2.27,0,0,0,37.72,218Z"/><path class="cls-3" d="M263.94,28.63S255.67,308,151.67,221.19"/><path class="cls-4" d="M261.69,28.57a2.26,2.26,0,1,1,4.51.13,2.26,2.26,0,1,1-4.51-.13Z"/><path class="cls-4" d="M153.12,219.46a2.26,2.26,0,1,0,.28,3.18A2.25,2.25,0,0,0,153.12,219.46Z"/><path class="cls-1" d="M301.56,67.5s-55,594.93,69.2,564.25"/><path class="cls-2" d="M299.32,67.3a2.25,2.25,0,1,1,2,2.45A2.25,2.25,0,0,1,299.32,67.3Z"/><path class="cls-2" d="M371.3,633.94a2.26,2.26,0,1,0-2.73-1.65A2.25,2.25,0,0,0,371.3,633.94Z"/><path class="cls-1" d="M371.16,602.79s-18.19,39-37.35-.54"/><path class="cls-2" d="M369.12,601.84a2.25,2.25,0,1,1,1.09,3A2.25,2.25,0,0,1,369.12,601.84Z"/><path class="cls-2" d="M335.84,601.27a2.26,2.26,0,1,0-4.06,2,2.26,2.26,0,0,0,4.06-2Z"/><path class="cls-5" d="M296.53,602.25S-91.42,564.16,113,84.13"/><path class="cls-6" d="M296.75,600a2.26,2.26,0,1,1-2.46,2A2.25,2.25,0,0,1,296.75,600Z"/><path class="cls-6" d="M115.08,85a2.26,2.26,0,1,0-3,1.19A2.26,2.26,0,0,0,115.08,85Z"/><path class="cls-5" d="M338.33,66.82s38.1,886,257.54,538.49"/><path class="cls-6" d="M336.08,66.91a2.26,2.26,0,1,1,2.35,2.16A2.26,2.26,0,0,1,336.08,66.91Z"/><path class="cls-6" d="M597.77,606.52a2.25,2.25,0,1,0-3.11.7A2.24,2.24,0,0,0,597.77,606.52Z"/><path class="cls-3" d="M372.74,548.36c10,17.77,91.56,153.13,183.2,28.33"/><path class="cls-4" d="M370.88,549.57a2.25,2.25,0,1,1,3.08.83A2.24,2.24,0,0,1,370.88,549.57Z"/><path class="cls-4" d="M557.67,578.12a2.26,2.26,0,1,0-3.16.46A2.27,2.27,0,0,0,557.67,578.12Z"/><path class="cls-7" d="M520.61,591.39s-111,354.49-447.34,69"/><path class="cls-8" d="M518.46,590.71a2.25,2.25,0,1,1,1.48,2.83A2.26,2.26,0,0,1,518.46,590.71Z"/><path class="cls-8" d="M74.73,658.62A2.26,2.26,0,1,0,75,661.8,2.26,2.26,0,0,0,74.73,658.62Z"/><path class="cls-5" d="M76.38,686.07c21.32,7.11,206.4,57,296.43-315.27"/><circle class="cls-6" cx="76.49" cy="686.11" r="2.26" transform="matrix(0.94, -0.35, 0.35, 0.94, -233.26, 69.14)"/><path class="cls-6" d="M374.93,371.46a2.26,2.26,0,1,0-2.75,1.62A2.25,2.25,0,0,0,374.93,371.46Z"/><path class="cls-9" d="M372.13,287.42C355.46,308.7,184.6,515.06,187.84,30.78"/><path class="cls-10" d="M370.27,286.12a2.26,2.26,0,1,1,.4,3.16A2.27,2.27,0,0,1,370.27,286.12Z"/><path class="cls-10" d="M190.12,30.88a2.26,2.26,0,1,0-2.25,2.26A2.26,2.26,0,0,0,190.12,30.88Z"/><path class="cls-5" d="M110,713.3c-5.06-33.95-67.8-467-1.62-599.51"/><path class="cls-6" d="M112.24,712.86a2.26,2.26,0,1,1-2.56-1.91A2.27,2.27,0,0,1,112.24,712.86Z"/><path class="cls-6" d="M110.41,114.89a2.26,2.26,0,1,0-3,1A2.27,2.27,0,0,0,110.41,114.89Z"/><path class="cls-9" d="M376.14,69c11.25,40.69,182.35,666.39-34.77,302"/><path class="cls-10" d="M374,69.73a2.26,2.26,0,1,1,2.77,1.59A2.25,2.25,0,0,1,374,69.73Z"/><path class="cls-10" d="M343.37,369.9a2.26,2.26,0,1,0-.74,3.1A2.26,2.26,0,0,0,343.37,369.9Z"/><path class="cls-1" d="M478.29,603.55S784.76,708.31,450.83,28.63"/><path class="cls-2" d="M477.56,605.69a2.26,2.26,0,1,1,1.46-4.27,2.26,2.26,0,0,1-1.46,4.27Z"/><path class="cls-2" d="M452.86,27.64a2.26,2.26,0,1,0-1,3A2.25,2.25,0,0,0,452.86,27.64Z"/><path class="cls-9" d="M445.59,27.26s426.43,392.23-37,711.07"/><path class="cls-10" d="M444.06,28.92a2.25,2.25,0,1,1,3.19-.13A2.24,2.24,0,0,1,444.06,28.92Z"/><path class="cls-10" d="M407.34,736.47a2.26,2.26,0,1,0,3.14.58A2.26,2.26,0,0,0,407.34,736.47Z"/><path class="cls-1" d="M111.43,288.67S14.18,307.18,74.58,84.13"/><path class="cls-2" d="M111,286.46a2.25,2.25,0,1,1-1.79,2.64A2.26,2.26,0,0,1,111,286.46Z"/><path class="cls-2" d="M76.76,84.72A2.26,2.26,0,1,0,74,86.3,2.26,2.26,0,0,0,76.76,84.72Z"/><path class="cls-3" d="M36,314.55c12.55,7.55,90.24,47.58,223.29-26.21"/><path class="cls-4" d="M34.9,316.51a2.26,2.26,0,1,1,3.11-.73A2.26,2.26,0,0,1,34.9,316.51Z"/><path class="cls-4" d="M260.23,290.35a2.26,2.26,0,1,0-3.05-.91A2.25,2.25,0,0,0,260.23,290.35Z"/><path class="cls-3" d="M225.9,287.25c1.58,10.35,9.76,54.57,33,42.63"/><circle class="cls-4" cx="225.92" cy="287.36" r="2.26"/><path class="cls-4" d="M259.92,331.88a2.25,2.25,0,1,0-3.06-.89A2.25,2.25,0,0,0,259.92,331.88Z"/><path class="cls-7" d="M224.13,328.33s159.53,90.94,300.47-41"/><path class="cls-8" d="M223,330.29a2.25,2.25,0,1,1,3.08-.84A2.26,2.26,0,0,1,223,330.29Z"/><path class="cls-8" d="M526.14,288.94a2.25,2.25,0,1,0-3.18-.1A2.25,2.25,0,0,0,526.14,288.94Z"/><path class="cls-5" d="M227.14,402c21.24,8.44,209.55,75.94,371-113"/><path class="cls-6" d="M226.4,404.08a2.25,2.25,0,1,1,2.94-1.23A2.25,2.25,0,0,1,226.4,404.08Z"/><path class="cls-6" d="M599.75,290.48a2.26,2.26,0,1,0-3.18.22A2.25,2.25,0,0,0,599.75,290.48Z"/><path class="cls-1" d="M487.2,341.67s32.08,110.92,75,0"/><path class="cls-2" d="M485,342.3a2.25,2.25,0,1,1,2.79,1.54A2.26,2.26,0,0,1,485,342.3Z"/><path class="cls-2" d="M564.34,342.48a2.26,2.26,0,1,0-2.92,1.29A2.25,2.25,0,0,0,564.34,342.48Z"/><path class="cls-5" d="M261.05,441.7c-11.17-3.27-64-25.45-74.83-154"/><circle class="cls-6" cx="260.94" cy="441.65" r="2.26" transform="translate(-120.13 98.24) rotate(-17.4)"/><circle class="cls-6" cx="186.25" cy="287.78" r="2.26"/><path class="cls-3" d="M336.84,371.29c-.28,13.42-3.29,84.46-35.77,56.77"/><path class="cls-4" d="M334.57,371.37a2.26,2.26,0,1,1,2.22,2.3A2.27,2.27,0,0,1,334.57,371.37Z"/><path class="cls-4" d="M302.64,426.36a2.26,2.26,0,1,0,.27,3.18A2.26,2.26,0,0,0,302.64,426.36Z"/><path class="cls-3" d="M336.39,454.91c-11.32,4.84-67.25,24.07-38.32-82.58"/><path class="cls-4" d="M335.36,452.87a2.26,2.26,0,1,1-1.15,3A2.26,2.26,0,0,1,335.36,452.87Z"/><path class="cls-4" d="M300.26,373a2.26,2.26,0,1,0-2.76,1.62A2.26,2.26,0,0,0,300.26,373Z"/><path class="cls-3" d="M294.93,429.12C291,449,265.16,603.25,406.22,588.72"/><path class="cls-4" d="M292.73,428.82a2.26,2.26,0,1,1,1.81,2.64A2.26,2.26,0,0,1,292.73,428.82Z"/><path class="cls-4" d="M406.33,591a2.26,2.26,0,1,0-2.46-2A2.25,2.25,0,0,0,406.33,591Z"/><path class="cls-1" d="M414.7,455.74c8,1.26,34.5,0-2.23-85.06"/><path class="cls-2" d="M414.35,458a2.26,2.26,0,1,1,2.68-1.74A2.26,2.26,0,0,1,414.35,458Z"/><path class="cls-2" d="M414.56,369.93a2.26,2.26,0,1,0-1.22,2.95A2.25,2.25,0,0,0,414.56,369.93Z"/><path class="cls-1" d="M376,401.17c3.53,12.53,22.57,77.36,32.84,58.12"/><path class="cls-2" d="M373.93,401.91a2.26,2.26,0,1,1,2.8,1.53A2.26,2.26,0,0,1,373.93,401.91Z"/><circle class="cls-2" cx="408.81" cy="459.38" r="2.26" transform="translate(-131.22 165.23) rotate(-19.76)"/><path class="cls-1" d="M451.24,401.23c6.77,2.81,26.93,13-.05,26.32"/><path class="cls-2" d="M450.51,403.4a2.26,2.26,0,1,1,2.93-1.26A2.27,2.27,0,0,1,450.51,403.4Z"/><path class="cls-2" d="M450.29,425.46a2.25,2.25,0,1,0,3,1A2.24,2.24,0,0,0,450.29,425.46Z"/><path class="cls-5" d="M446,344.87C444.43,378.4,421.59,793,262.2,605.74"/><circle class="cls-6" cx="445.97" cy="344.98" r="2.26" transform="translate(-100.74 207.11) rotate(-23.57)"/><path class="cls-6" d="M264,604.31a2.26,2.26,0,1,0-.22,3.19A2.26,2.26,0,0,0,264,604.31Z"/><path class="cls-5" d="M222.71,547.39C199.53,569.5-75.95,825,33.94,372.15"/><path class="cls-6" d="M221.06,545.78a2.25,2.25,0,1,1-.13,3.19A2.26,2.26,0,0,1,221.06,545.78Z"/><path class="cls-6" d="M36.15,372.77a2.26,2.26,0,1,0-2.71,1.7A2.26,2.26,0,0,0,36.15,372.77Z"/><path class="cls-1" d="M113.49,549.27c6.4,10.78,36.94,66.21-.83,83.22"/><path class="cls-2" d="M111.61,550.54a2.26,2.26,0,1,1,3.09.77A2.25,2.25,0,0,1,111.61,550.54Z"/><path class="cls-2" d="M111.8,630.34a2.26,2.26,0,1,0,3,1.13A2.26,2.26,0,0,0,111.8,630.34Z"/><path class="cls-1" d="M188.94,546.55c26.08,5.61,286.6,54.32,222.12-255.48"/><path class="cls-2" d="M188.58,548.77a2.26,2.26,0,1,1,2.68-1.72A2.26,2.26,0,0,1,188.58,548.77Z"/><path class="cls-2" d="M413.27,290.74a2.26,2.26,0,1,0-1.78,2.65A2.26,2.26,0,0,0,413.27,290.74Z"/><path class="cls-1" d="M449.44,316.88c2.4,26.92,25.17,298.75-38.22,231.43"/><path class="cls-2" d="M447.19,317.19a2.26,2.26,0,1,1,2.44,2.06A2.26,2.26,0,0,1,447.19,317.19Z"/><path class="cls-2" d="M413,546.82a2.26,2.26,0,1,0-.09,3.19A2.25,2.25,0,0,0,413,546.82Z"/><path class="cls-7" d="M449.25,285.73S201.33,594.48,34.58,397.89"/><path class="cls-8" d="M447.49,284.31a2.26,2.26,0,1,1,.34,3.18A2.25,2.25,0,0,1,447.49,284.31Z"/><path class="cls-8" d="M36.3,396.43a2.26,2.26,0,1,0-.26,3.18A2.25,2.25,0,0,0,36.3,396.43Z"/><path class="cls-3" d="M450.94,350.37c52.58,104.56,10.71,107.82.44,107.2"/><circle class="cls-4" cx="450.97" cy="350.48" r="2.26"/><path class="cls-4" d="M451.72,455.32a2.26,2.26,0,1,0,2,2.47A2.26,2.26,0,0,0,451.72,455.32Z"/></svg>