<svg id="Layer_1" data-name="Layer 1" xmlns="http://www.w3.org/2000/svg" xmlns:xlink="http://www.w3.org/1999/xlink" viewBox="0 0 18.76 18.76"><defs><style>.cls-1{fill:url(#radial-gradient);}.cls-2{fill:none;stroke-miterlimit:10;stroke-width:0.25px;stroke:url(#New_Gradient_Swatch_1);}</style><radialGradient id="radial-gradient" cx="295.24" cy="256" r="9.26" gradientUnits="userSpaceOnUse"><stop offset="0.2" stop-color="#434446"/><stop offset="0.26" stop-color="#3e3e3f"/><stop offset="0.49" stop-color="#2f2d2e"/><stop offset="0.72" stop-color="#262223"/><stop offset="1" stop-color="#231f20"/></radialGradient><linearGradient id="New_Gradient_Swatch_1" x1="285.86" y1="256" x2="304.62" y2="256" gradientUnits="userSpaceOnUse"><stop offset="0" stop-color="#595a5c"/><stop offset="1" stop-color="#231f20"/></linearGradient></defs><path class="cls-1" d="M304.47,256.51c0-.17,0-.34,0-.51a9,9,0,0,0-.18-1.81l-.61-.17a2.67,2.67,0,0,1-1.66-1.41v0a2.63,2.63,0,0,1-.14-2.19l.22-.57a9.33,9.33,0,0,0-1.77-1.54l-.53.31a2.68,2.68,0,0,1-2.18.17h0A2.65,2.65,0,0,1,296,247.3l-.23-.53h0a9.5,9.5,0,0,0-2.34.17l-.15.57a2.68,2.68,0,0,1-1.42,1.66h0a2.65,2.65,0,0,1-2.2.14l-.51-.2a9.26,9.26,0,0,0-1.56,1.8l.28.48a2.71,2.71,0,0,1,.17,2.18v0a2.67,2.67,0,0,1-1.45,1.65l-.49.21c0,.19,0,.37,0,.55a9.16,9.16,0,0,0,.18,1.83l.53.15a2.65,2.65,0,0,1,1.66,1.41l0,0a2.71,2.71,0,0,1,.14,2.19l-.2.51a8.87,8.87,0,0,0,1.78,1.57l.5-.28a2.67,2.67,0,0,1,2.18-.17h0a2.67,2.67,0,0,1,1.65,1.45l.23.53c.19,0,.37,0,.57,0a9.51,9.51,0,0,0,1.78-.18l.16-.58a2.7,2.7,0,0,1,1.41-1.66h0a2.63,2.63,0,0,1,2.19-.14l.57.22a9.52,9.52,0,0,0,1.54-1.75l-.31-.55a2.67,2.67,0,0,1-.17-2.18v0a2.68,2.68,0,0,1,1.44-1.65Z" transform="translate(-285.86 -246.62)"/><path class="cls-2" d="M304.47,256.51c0-.17,0-.34,0-.51a9,9,0,0,0-.18-1.81l-.61-.17a2.67,2.67,0,0,1-1.66-1.41v0a2.63,2.63,0,0,1-.14-2.19l.22-.57a9.33,9.33,0,0,0-1.77-1.54l-.53.31a2.68,2.68,0,0,1-2.18.17h0A2.65,2.65,0,0,1,296,247.3l-.23-.53h0a9.5,9.5,0,0,0-2.34.17l-.15.57a2.68,2.68,0,0,1-1.42,1.66h0a2.65,2.65,0,0,1-2.2.14l-.51-.2a9.26,9.26,0,0,0-1.56,1.8l.28.48a2.71,2.71,0,0,1,.17,2.18v0a2.67,2.67,0,0,1-1.45,1.65l-.49.21c0,.19,0,.37,0,.55a9.16,9.16,0,0,0,.18,1.83l.53.15a2.65,2.65,0,0,1,1.66,1.41l0,0a2.71,2.71,0,0,1,.14,2.19l-.2.51a8.87,8.87,0,0,0,1.78,1.57l.5-.28a2.67,2.67,0,0,1,2.18-.17h0a2.67,2.67,0,0,1,1.65,1.45l.23.53c.19,0,.37,0,.57,0a9.51,9.51,0,0,0,1.78-.18l.16-.58a2.7,2.7,0,0,1,1.41-1.66h0a2.63,2.63,0,0,1,2.19-.14l.57.22a9.52,9.52,0,0,0,1.54-1.75l-.31-.55a2.67,2.67,0,0,1-.17-2.18v0a2.68,2.68,0,0,1,1.44-1.65Z" transform="translate(-285.86 -246.62)"/></svg>