<svg id="Layer_1" data-name="Layer 1" xmlns="http://www.w3.org/2000/svg" xmlns:xlink="http://www.w3.org/1999/xlink" viewBox="0 0 18.76 18.76"><defs><style>.cls-1{fill:url(#radial-gradient);}.cls-2{fill:none;stroke-miterlimit:10;stroke-width:0.25px;stroke:url(#New_Gradient_Swatch_1);}.cls-3{fill:url(#linear-gradient);}</style><radialGradient id="radial-gradient" cx="316.71" cy="386.62" r="9.26" gradientUnits="userSpaceOnUse"><stop offset="0.2" stop-color="#434446"/><stop offset="0.26" stop-color="#3e3e3f"/><stop offset="0.49" stop-color="#2f2d2e"/><stop offset="0.72" stop-color="#262223"/><stop offset="1" stop-color="#231f20"/></radialGradient><linearGradient id="New_Gradient_Swatch_1" x1="307.33" y1="386.62" x2="326.09" y2="386.62" gradientUnits="userSpaceOnUse"><stop offset="0" stop-color="#595a5c"/><stop offset="1" stop-color="#231f20"/></linearGradient><linearGradient id="linear-gradient" x1="456.71" y1="226.08" x2="463.96" y2="226.08" gradientTransform="matrix(0.83, 0.2, 0.2, 0.78, -110.64, 123.71)" gradientUnits="userSpaceOnUse"><stop offset="0" stop-color="#fff"/><stop offset="1" stop-color="#fff"/></linearGradient></defs><path class="cls-1" d="M325.94,387.13c0-.17,0-.34,0-.51a9,9,0,0,0-.18-1.81l-.61-.17a2.7,2.7,0,0,1-1.66-1.41v0a2.69,2.69,0,0,1-.14-2.2l.22-.56a9.58,9.58,0,0,0-1.76-1.54l-.54.31a2.67,2.67,0,0,1-2.18.17h0a2.67,2.67,0,0,1-1.65-1.45l-.23-.53h0a9.54,9.54,0,0,0-2.34.17l-.15.56a2.69,2.69,0,0,1-1.41,1.67h0a2.67,2.67,0,0,1-2.19.14l-.52-.2a9.26,9.26,0,0,0-1.56,1.8l.28.48a2.67,2.67,0,0,1,.17,2.18v0a2.67,2.67,0,0,1-1.45,1.65l-.49.21c0,.18,0,.37,0,.55a9.16,9.16,0,0,0,.19,1.83l.53.15a2.7,2.7,0,0,1,1.66,1.41v0a2.63,2.63,0,0,1,.14,2.19l-.2.51a9.15,9.15,0,0,0,1.78,1.57l.5-.28a2.67,2.67,0,0,1,2.18-.17h0a2.67,2.67,0,0,1,1.65,1.45l.23.53.57,0a9.51,9.51,0,0,0,1.78-.18l.16-.58a2.67,2.67,0,0,1,1.41-1.66h0a2.63,2.63,0,0,1,2.19-.14l.57.22a9.16,9.16,0,0,0,1.54-1.75l-.31-.55a2.67,2.67,0,0,1-.17-2.18v0a2.67,2.67,0,0,1,1.45-1.65Z" transform="translate(-307.33 -377.24)"/><path class="cls-2" d="M325.94,387.13c0-.17,0-.34,0-.51a9,9,0,0,0-.18-1.81l-.61-.17a2.7,2.7,0,0,1-1.66-1.41v0a2.69,2.69,0,0,1-.14-2.2l.22-.56a9.58,9.58,0,0,0-1.76-1.54l-.54.31a2.67,2.67,0,0,1-2.18.17h0a2.67,2.67,0,0,1-1.65-1.45l-.23-.53h0a9.54,9.54,0,0,0-2.34.17l-.15.56a2.69,2.69,0,0,1-1.41,1.67h0a2.67,2.67,0,0,1-2.19.14l-.52-.2a9.26,9.26,0,0,0-1.56,1.8l.28.48a2.67,2.67,0,0,1,.17,2.18v0a2.67,2.67,0,0,1-1.45,1.65l-.49.21c0,.18,0,.37,0,.55a9.16,9.16,0,0,0,.19,1.83l.53.15a2.7,2.7,0,0,1,1.66,1.41v0a2.63,2.63,0,0,1,.14,2.19l-.2.51a9.15,9.15,0,0,0,1.78,1.57l.5-.28a2.67,2.67,0,0,1,2.18-.17h0a2.67,2.67,0,0,1,1.65,1.45l.23.53.57,0a9.51,9.51,0,0,0,1.78-.18l.16-.58a2.67,2.67,0,0,1,1.41-1.66h0a2.63,2.63,0,0,1,2.19-.14l.57.22a9.16,9.16,0,0,0,1.54-1.75l-.31-.55a2.67,2.67,0,0,1-.17-2.18v0a2.67,2.67,0,0,1,1.45-1.65Z" transform="translate(-307.33 -377.24)"/><path class="cls-3" d="M315.71,388.89a.43.43,0,0,0,.05-.13.83.83,0,0,0-.3-.66s-.38-.35-.71-.25l-.13.06L311,392c.17.17.29.34.48.5s.42.32.61.47" transform="translate(-307.33 -377.24)"/></svg>