<svg id="KNOBS" xmlns="http://www.w3.org/2000/svg" xmlns:xlink="http://www.w3.org/1999/xlink" viewBox="0 0 584.66 695.28"><defs><style>.cls-1{fill:url(#linear-gradient);}.cls-2{fill:url(#radial-gradient);}.cls-3{fill:none;stroke-miterlimit:10;stroke-width:0.25px;stroke:url(#New_Gradient_Swatch_1);}.cls-4{fill:url(#linear-gradient-2);}.cls-5{fill:url(#linear-gradient-3);}</style><linearGradient id="linear-gradient" x1="3.44" y1="3.01" x2="16.13" y2="15.69" gradientUnits="userSpaceOnUse"><stop offset="0" stop-color="#a6a8ac"/><stop offset="0.03" stop-color="#8d8f92"/><stop offset="0.08" stop-color="#747577"/><stop offset="0.13" stop-color="#5f5f61"/><stop offset="0.18" stop-color="#4f4f50"/><stop offset="0.26" stop-color="#434345"/><stop offset="0.36" stop-color="#3d3d3e"/><stop offset="0.64" stop-color="#3b3b3c"/><stop offset="0.84" stop-color="#231f20"/></linearGradient><radialGradient id="radial-gradient" cx="9.38" cy="9.38" r="9.26" gradientUnits="userSpaceOnUse"><stop offset="0.2" stop-color="#434446"/><stop offset="0.26" stop-color="#3e3e3f"/><stop offset="0.49" stop-color="#2f2d2e"/><stop offset="0.72" stop-color="#262223"/><stop offset="1" stop-color="#231f20"/></radialGradient><linearGradient id="New_Gradient_Swatch_1" y1="9.38" x2="18.76" y2="9.38" gradientUnits="userSpaceOnUse"><stop offset="0" stop-color="#595a5c"/><stop offset="1" stop-color="#231f20"/></linearGradient><linearGradient id="linear-gradient-2" x1="422.1" y1="-456.07" x2="429.35" y2="-456.07" gradientTransform="matrix(0.83, 0.2, 0.2, 0.78, -256.03, 286.26)" gradientUnits="userSpaceOnUse"><stop offset="0" stop-color="#fff"/><stop offset="1" stop-color="#fff"/></linearGradient><linearGradient id="linear-gradient-3" x1="422.36" y1="-456.01" x2="429.61" y2="-456.01" gradientTransform="matrix(0.83, 0.2, 0.2, 0.78, -256, 286.22)" xlink:href="#linear-gradient-2"/><symbol id="Davies_Knob" data-name="Davies Knob" viewBox="0 0 18.76 18.76"><path class="cls-1" d="M18.64,9.35a9,9,0,0,1-8.86,9.09A9,9,0,0,1,.93,9.35,9,9,0,0,1,9.78.27,9,9,0,0,1,18.64,9.35Z"/><path class="cls-2" d="M18.61,9.89c0-.17,0-.34,0-.51a9.74,9.74,0,0,0-.18-1.81l-.61-.17A2.65,2.65,0,0,1,16.19,6l0,0A2.71,2.71,0,0,1,16,3.77l.22-.57a9.58,9.58,0,0,0-1.76-1.54L14,2a2.67,2.67,0,0,1-2.18.17h0A2.68,2.68,0,0,1,10.1.69L9.87.15h0A9.45,9.45,0,0,0,7.52.31L7.36.88A2.67,2.67,0,0,1,6,2.54h0a2.63,2.63,0,0,1-2.19.14l-.51-.2a8.94,8.94,0,0,0-1.56,1.8l.27.48A2.67,2.67,0,0,1,2.1,7V7A2.68,2.68,0,0,1,.65,8.62l-.5.21c0,.19,0,.37,0,.55a9.34,9.34,0,0,0,.19,1.84l.53.14A2.67,2.67,0,0,1,2.5,12.77v0A2.65,2.65,0,0,1,2.65,15l-.2.5a9.21,9.21,0,0,0,1.79,1.57l.49-.28a2.68,2.68,0,0,1,2.18-.17h0a2.65,2.65,0,0,1,1.64,1.45l.23.53c.19,0,.38,0,.57,0a9.42,9.42,0,0,0,1.78-.18l.16-.57a2.68,2.68,0,0,1,1.42-1.67h0a2.69,2.69,0,0,1,2.2-.14l.56.22a9.22,9.22,0,0,0,1.55-1.75L16.75,14a2.71,2.71,0,0,1-.17-2.18v0A2.67,2.67,0,0,1,18,10.14Z"/><path class="cls-3" d="M18.61,9.89c0-.17,0-.34,0-.51a9.74,9.74,0,0,0-.18-1.81l-.61-.17A2.65,2.65,0,0,1,16.19,6l0,0A2.71,2.71,0,0,1,16,3.77l.22-.57a9.58,9.58,0,0,0-1.76-1.54L14,2a2.67,2.67,0,0,1-2.18.17h0A2.68,2.68,0,0,1,10.1.69L9.87.15h0A9.45,9.45,0,0,0,7.52.31L7.36.88A2.67,2.67,0,0,1,6,2.54h0a2.63,2.63,0,0,1-2.19.14l-.51-.2a8.94,8.94,0,0,0-1.56,1.8l.27.48A2.67,2.67,0,0,1,2.1,7V7A2.68,2.68,0,0,1,.65,8.62l-.5.21c0,.19,0,.37,0,.55a9.34,9.34,0,0,0,.19,1.84l.53.14A2.67,2.67,0,0,1,2.5,12.77v0A2.65,2.65,0,0,1,2.65,15l-.2.5a9.21,9.21,0,0,0,1.79,1.57l.49-.28a2.68,2.68,0,0,1,2.18-.17h0a2.65,2.65,0,0,1,1.64,1.45l.23.53c.19,0,.38,0,.57,0a9.42,9.42,0,0,0,1.78-.18l.16-.57a2.68,2.68,0,0,1,1.42-1.67h0a2.69,2.69,0,0,1,2.2-.14l.56.22a9.22,9.22,0,0,0,1.55-1.75L16.75,14a2.71,2.71,0,0,1-.17-2.18v0A2.67,2.67,0,0,1,18,10.14Z"/><path class="cls-4" d="M8.39,11.65a.93.93,0,0,0,0-.13.8.8,0,0,0-.3-.66.83.83,0,0,0-.71-.25l-.12.06L3.65,14.75c.18.17.29.34.48.5s.43.32.61.47"/></symbol><symbol id="New_Symbol_11" data-name="New Symbol 11" viewBox="0 0 18.76 18.76"><path class="cls-5" d="M8.65,11.72a.38.38,0,0,0,0-.13.77.77,0,0,0-.3-.66.83.83,0,0,0-.71-.25l-.12.06L3.92,14.81c.17.17.29.35.47.51s.43.32.62.47"/><use width="18.76" height="18.76" xlink:href="#Davies_Knob"/></symbol></defs><use width="18.76" height="18.76" transform="translate(339.91 37.79)" xlink:href="#New_Symbol_11"/><use width="18.76" height="18.76" transform="translate(489.93 73.03)" xlink:href="#New_Symbol_11"/><use width="18.76" height="18.76" transform="translate(565.75 37.35)" xlink:href="#New_Symbol_11"/><use width="18.76" height="18.76" transform="translate(565.75 113.64)" xlink:href="#New_Symbol_11"/><use width="18.76" height="18.76" transform="translate(152.44 0)" xlink:href="#New_Symbol_11"/><use width="18.76" height="18.76" transform="translate(152.44 39.23)" xlink:href="#New_Symbol_11"/><use width="18.76" height="18.76" transform="translate(152.44 112.99)" xlink:href="#New_Symbol_11"/><use width="18.76" height="18.76" transform="translate(115.05 112.99)" xlink:href="#New_Symbol_11"/><use width="18.76" height="18.76" transform="translate(76.75 152.21)" xlink:href="#New_Symbol_11"/><use width="18.76" height="18.76" transform="translate(39.5 152.21)" xlink:href="#New_Symbol_11"/><use width="18.76" height="18.76" transform="translate(1.66 112.99)" xlink:href="#New_Symbol_11"/><use width="18.76" height="18.76" transform="translate(152.44 152.22)" xlink:href="#New_Symbol_11"/><use width="18.76" height="18.76" transform="translate(374.92 247.33)" xlink:href="#New_Symbol_11"/><use width="18.76" height="18.76" transform="translate(338.01 274.7)" xlink:href="#New_Symbol_11"/><use width="18.76" height="18.76" transform="translate(338.01 247.34)" xlink:href="#New_Symbol_11"/><use width="18.76" height="18.76" transform="translate(338.01 387.4)" xlink:href="#New_Symbol_11"/><use width="18.76" height="18.76" transform="translate(338.01 360.05)" xlink:href="#New_Symbol_11"/><use width="18.76" height="18.76" transform="translate(263.42 330.61)" xlink:href="#New_Symbol_11"/><use width="18.76" height="18.76" transform="translate(263.42 245.94)" xlink:href="#New_Symbol_11"/><use width="18.76" height="18.76" transform="translate(263.42 387.52)" xlink:href="#New_Symbol_11"/><use width="18.76" height="18.76" transform="translate(227.08 411.39)" xlink:href="#New_Symbol_11"/><use width="18.76" height="18.76" transform="translate(188.16 411.39)" xlink:href="#New_Symbol_11"/><use width="18.76" height="18.76" transform="translate(150.5 387.39)" xlink:href="#New_Symbol_11"/><use width="18.76" height="18.76" transform="translate(150.5 359.18)" xlink:href="#New_Symbol_11"/><use width="18.76" height="18.76" transform="translate(150.5 330.97)" xlink:href="#New_Symbol_11"/><use width="18.76" height="18.76" transform="translate(150.5 302.76)" xlink:href="#New_Symbol_11"/><use width="18.76" height="18.76" transform="translate(150.5 274.55)" xlink:href="#New_Symbol_11"/><use width="18.76" height="18.76" transform="translate(34.79 260.34)" xlink:href="#New_Symbol_11"/><use width="18.76" height="18.76" transform="translate(34.79 223.18)" xlink:href="#New_Symbol_11"/><use width="18.76" height="18.76" transform="translate(34.79 298.14)" xlink:href="#New_Symbol_11"/><use width="18.76" height="18.76" transform="translate(34.79 374.64)" xlink:href="#New_Symbol_11"/><use width="18.76" height="18.76" transform="translate(34.79 337.47)" xlink:href="#New_Symbol_11"/><use width="18.76" height="18.76" transform="translate(34.79 412.44)" xlink:href="#New_Symbol_11"/><use width="18.76" height="18.76" transform="translate(374.92 331.57)" xlink:href="#New_Symbol_11"/><use width="18.76" height="18.76" transform="translate(374.92 417.23)" xlink:href="#New_Symbol_11"/><use width="18.76" height="18.76" transform="translate(452.35 412.43)" xlink:href="#New_Symbol_11"/><use width="18.76" height="18.76" transform="translate(451.96 374.09)" xlink:href="#New_Symbol_11"/><use width="18.76" height="18.76" transform="translate(490.47 375.31)" xlink:href="#New_Symbol_11"/><use width="18.76" height="18.76" transform="translate(490.47 299.52)" xlink:href="#New_Symbol_11"/><use width="18.76" height="18.76" transform="translate(527.78 412.43)" xlink:href="#New_Symbol_11"/><use width="18.76" height="18.76" transform="translate(527.39 374.09)" xlink:href="#New_Symbol_11"/><use width="18.76" height="18.76" transform="translate(565.9 375.31)" xlink:href="#New_Symbol_11"/><use width="18.76" height="18.76" transform="translate(565.9 299.52)" xlink:href="#New_Symbol_11"/><use width="18.76" height="18.76" transform="translate(0 522.15)" xlink:href="#Davies_Knob"/><use width="18.76" height="18.76" transform="translate(0 480.53)" xlink:href="#Davies_Knob"/><use width="18.76" height="18.76" transform="translate(0 559.37)" xlink:href="#Davies_Knob"/><use width="18.76" height="18.76" transform="translate(0 596.71)" xlink:href="#Davies_Knob"/><use width="18.76" height="18.76" transform="translate(0 635.77)" xlink:href="#Davies_Knob"/><use width="18.76" height="18.76" transform="translate(0 672.32)" xlink:href="#Davies_Knob"/><use width="18.76" height="18.76" transform="translate(188.08 672.47)" xlink:href="#Davies_Knob"/><use width="18.76" height="18.76" transform="translate(188.08 633.45)" xlink:href="#Davies_Knob"/><use width="18.76" height="18.76" transform="translate(225.59 633.45)" xlink:href="#Davies_Knob"/><use width="18.76" height="18.76" transform="translate(261.72 633.45)" xlink:href="#Davies_Knob"/><use width="18.76" height="18.76" transform="translate(299.22 633.45)" xlink:href="#Davies_Knob"/><use width="18.76" height="18.76" transform="translate(261.72 671.45)" xlink:href="#Davies_Knob"/><use width="18.76" height="18.76" transform="translate(299.22 671.45)" xlink:href="#Davies_Knob"/><use width="18.76" height="18.76" transform="translate(336.18 675.46)" xlink:href="#Davies_Knob"/><use width="18.76" height="18.76" transform="translate(336.18 593.2)" xlink:href="#Davies_Knob"/><use width="18.76" height="18.76" transform="translate(372.23 596.94)" xlink:href="#Davies_Knob"/><use width="18.76" height="18.76" transform="translate(410.14 596.94)" xlink:href="#Davies_Knob"/><use width="18.76" height="18.76" transform="translate(447.55 596.94)" xlink:href="#Davies_Knob"/><use width="18.76" height="18.76" transform="translate(410.14 634.99)" xlink:href="#Davies_Knob"/><use width="18.76" height="18.76" transform="translate(372.1 634.99)" xlink:href="#Davies_Knob"/><use width="18.76" height="18.76" transform="translate(447.55 634.99)" xlink:href="#Davies_Knob"/><use width="18.76" height="18.76" transform="translate(409.93 676.51)" xlink:href="#Davies_Knob"/><use width="18.76" height="18.76" transform="translate(484.33 596.94)" xlink:href="#Davies_Knob"/><use width="18.76" height="18.76" transform="translate(522.24 596.94)" xlink:href="#Davies_Knob"/><use width="18.76" height="18.76" transform="translate(559.65 596.94)" xlink:href="#Davies_Knob"/><use width="18.76" height="18.76" transform="translate(522.24 634.99)" xlink:href="#Davies_Knob"/><use width="18.76" height="18.76" transform="translate(484.2 634.99)" xlink:href="#Davies_Knob"/><use width="18.76" height="18.76" transform="translate(559.65 634.99)" xlink:href="#Davies_Knob"/><use width="18.76" height="18.76" transform="translate(522.03 676.51)" xlink:href="#Davies_Knob"/><use width="18.76" height="18.76" transform="translate(225.59 672.48)" xlink:href="#Davies_Knob"/><use width="18.76" height="18.76" transform="translate(150.5 648.13)" xlink:href="#New_Symbol_11"/><use width="18.76" height="18.76" transform="translate(150.5 619.92)" xlink:href="#New_Symbol_11"/><use width="18.76" height="18.76" transform="translate(150.5 591.71)" xlink:href="#New_Symbol_11"/><use width="18.76" height="18.76" transform="translate(150.5 563.5)" xlink:href="#New_Symbol_11"/><use width="18.76" height="18.76" transform="translate(150.5 535.29)" xlink:href="#New_Symbol_11"/></svg>